<?xml version="1.0"?>
<svg xmlns="http://www.w3.org/2000/svg" xmlns:xlink="http://www.w3.org/1999/xlink" xmlns:svgjs="http://svgjs.com/svgjs" version="1.1" width="512" height="512" x="0" y="0" viewBox="0 0 490.6 490.6" style="user-select: auto;" xml:space="preserve"><g style="user-select: auto;">
<g xmlns="http://www.w3.org/2000/svg" style="user-select: auto;">
	<path d="M393,0H97.6c-14,0-25.3,11.3-25.3,25.3v332.6c0,11.5,5.6,22.2,15,28.8l140.8,98.5c10.3,7.2,24.1,7.2,34.4,0l140.8-98.5   c9.4-6.6,15-17.3,15-28.8V25.3C418.3,11.3,407,0,393,0z M351.5,189.9l-48.1,40.9l15,61.5c2.8,11.6-9.7,20.8-19.8,14.5l-53.3-33.5   l-53.4,33.4c-10.1,6.3-22.6-2.9-19.8-14.5l15-61.5L139,189.8c-9-7.7-4.3-22.6,7.6-23.4l62.7-4.6l23.7-58.7c4.5-11,20-11,24.5,0   l23.7,58.7l62.7,4.6C355.8,167.3,360.6,182.2,351.5,189.9z" fill="#ffffff" data-original="#000000" style="user-select: auto;"/>
</g>
<g xmlns="http://www.w3.org/2000/svg" style="user-select: auto;">
</g>
<g xmlns="http://www.w3.org/2000/svg" style="user-select: auto;">
</g>
<g xmlns="http://www.w3.org/2000/svg" style="user-select: auto;">
</g>
<g xmlns="http://www.w3.org/2000/svg" style="user-select: auto;">
</g>
<g xmlns="http://www.w3.org/2000/svg" style="user-select: auto;">
</g>
<g xmlns="http://www.w3.org/2000/svg" style="user-select: auto;">
</g>
<g xmlns="http://www.w3.org/2000/svg" style="user-select: auto;">
</g>
<g xmlns="http://www.w3.org/2000/svg" style="user-select: auto;">
</g>
<g xmlns="http://www.w3.org/2000/svg" style="user-select: auto;">
</g>
<g xmlns="http://www.w3.org/2000/svg" style="user-select: auto;">
</g>
<g xmlns="http://www.w3.org/2000/svg" style="user-select: auto;">
</g>
<g xmlns="http://www.w3.org/2000/svg" style="user-select: auto;">
</g>
<g xmlns="http://www.w3.org/2000/svg" style="user-select: auto;">
</g>
<g xmlns="http://www.w3.org/2000/svg" style="user-select: auto;">
</g>
<g xmlns="http://www.w3.org/2000/svg" style="user-select: auto;">
</g>
</g></svg>
