<?xml version="1.0"?>
<svg xmlns="http://www.w3.org/2000/svg" xmlns:xlink="http://www.w3.org/1999/xlink" xmlns:svgjs="http://svgjs.com/svgjs" version="1.1" width="512" height="512" x="0" y="0" viewBox="0 0 512 511" style="user-select: auto;" xml:space="preserve" class=""><g style="user-select: auto;"><path xmlns="http://www.w3.org/2000/svg" d="m257 471.5h-177c-44.113281 0-80-35.886719-80-80v-311c0-44.113281 35.886719-80 80-80h352c44.113281 0 80 35.886719 80 80v197c0 11.046875-8.953125 20-20 20s-20-8.953125-20-20v-197c0-22.054688-17.945312-40-40-40h-352c-22.054688 0-40 17.945312-40 40v311c0 22.054688 17.945312 40 40 40h177c11.046875 0 20 8.953125 20 20s-8.953125 20-20 20zm-140-100c0-11.046875-8.953125-20-20-20s-20 8.953125-20 20 8.953125 20 20 20 20-8.953125 20-20zm80 0c0-11.046875-8.953125-20-20-20s-20 8.953125-20 20 8.953125 20 20 20 20-8.953125 20-20zm80 0c0-11.046875-8.953125-20-20-20s-20 8.953125-20 20 8.953125 20 20 20 20-8.953125 20-20zm-160-271c0-11.046875-8.953125-20-20-20s-20 8.953125-20 20 8.953125 20 20 20 20-8.953125 20-20zm80 0c0-11.046875-8.953125-20-20-20s-20 8.953125-20 20 8.953125 20 20 20 20-8.953125 20-20zm80 0c0-11.046875-8.953125-20-20-20s-20 8.953125-20 20 8.953125 20 20 20 20-8.953125 20-20zm80 0c0-11.046875-8.953125-20-20-20s-20 8.953125-20 20 8.953125 20 20 20 20-8.953125 20-20zm80 0c0-11.046875-8.953125-20-20-20s-20 8.953125-20 20 8.953125 20 20 20 20-8.953125 20-20zm-54.484375 385.132812 106.625-61.371093c13.6875-7.878907 21.859375-21.996094 21.859375-37.761719s-8.171875-29.882812-21.859375-37.761719l-106.625-61.371093c-13.699219-7.886719-30.046875-7.871094-43.734375.042968-13.636719 7.886719-21.78125 21.988282-21.78125 37.71875v122.742188c0 15.730468 8.144531 29.832031 21.78125 37.71875 6.855469 3.964844 14.378906 5.945312 21.90625 5.945312 7.496094 0 14.992188-1.964844 21.828125-5.902344zm-19.953125-163.597656 106.625 61.371094c1.203125.691406 1.8125 1.734375 1.8125 3.09375 0 1.363281-.609375 2.402344-1.8125 3.09375l-106.625 61.371094c-1.25.71875-2.511719.71875-3.757812-.003906-1.195313-.691407-1.804688-1.730469-1.804688-3.089844v-122.742188c0-1.359375.605469-2.398437 1.804688-3.089844.625-.359374 1.253906-.542968 1.882812-.542968.625 0 1.253906.179687 1.875.539062zm0 0" fill="#0081ff" data-original="#000000" style="user-select: auto;" class=""/></g></svg>
