<?xml version="1.0"?>
<svg xmlns="http://www.w3.org/2000/svg" xmlns:xlink="http://www.w3.org/1999/xlink" xmlns:svgjs="http://svgjs.com/svgjs" version="1.1" width="512" height="512" x="0" y="0" viewBox="0 0 512 512" style="user-select: auto;" xml:space="preserve"><rect width="512" height="512" rx="20" ry="20" fill="#e1e5e9" shape="rounded" style="user-select: auto;" transform="matrix(0.99,0,0,0.99,2.5600000000000023,2.5600000000000023)"/><g transform="matrix(0.7,0,0,0.7,76.80000000000001,76.80000000000001)" style="user-select: auto;">
<g xmlns="http://www.w3.org/2000/svg" style="user-select: auto;">
	<g style="user-select: auto;">
		<path d="M256,0c-74.439,0-135,60.561-135,135s60.561,135,135,135s135-60.561,135-135S330.439,0,256,0z" fill="#ffffff" data-original="#000000" style="user-select: auto;"/>
	</g>
</g>
<g xmlns="http://www.w3.org/2000/svg" style="user-select: auto;">
	<g style="user-select: auto;">
		<path d="M423.966,358.195C387.006,320.667,338.009,300,286,300h-60c-52.008,0-101.006,20.667-137.966,58.195    C51.255,395.539,31,444.833,31,497c0,8.284,6.716,15,15,15h420c8.284,0,15-6.716,15-15    C481,444.833,460.745,395.539,423.966,358.195z" fill="#ffffff" data-original="#000000" style="user-select: auto;"/>
	</g>
</g>
<g xmlns="http://www.w3.org/2000/svg" style="user-select: auto;">
</g>
<g xmlns="http://www.w3.org/2000/svg" style="user-select: auto;">
</g>
<g xmlns="http://www.w3.org/2000/svg" style="user-select: auto;">
</g>
<g xmlns="http://www.w3.org/2000/svg" style="user-select: auto;">
</g>
<g xmlns="http://www.w3.org/2000/svg" style="user-select: auto;">
</g>
<g xmlns="http://www.w3.org/2000/svg" style="user-select: auto;">
</g>
<g xmlns="http://www.w3.org/2000/svg" style="user-select: auto;">
</g>
<g xmlns="http://www.w3.org/2000/svg" style="user-select: auto;">
</g>
<g xmlns="http://www.w3.org/2000/svg" style="user-select: auto;">
</g>
<g xmlns="http://www.w3.org/2000/svg" style="user-select: auto;">
</g>
<g xmlns="http://www.w3.org/2000/svg" style="user-select: auto;">
</g>
<g xmlns="http://www.w3.org/2000/svg" style="user-select: auto;">
</g>
<g xmlns="http://www.w3.org/2000/svg" style="user-select: auto;">
</g>
<g xmlns="http://www.w3.org/2000/svg" style="user-select: auto;">
</g>
<g xmlns="http://www.w3.org/2000/svg" style="user-select: auto;">
</g>
</g></svg>
